<svg xmlns="http://www.w3.org/2000/svg" viewBox="0 0 239 319.74"><defs><style>.cls-1{isolation:isolate;}.cls-2,.cls-5{fill:#fff;}.cls-3{fill:#78dbf2;}.cls-4{fill:#f7f7f7;mix-blend-mode:multiply;}.cls-5{stroke:#fff;stroke-miterlimit:10;stroke-width:1.09px;}</style></defs><g class="cls-1"><g id="Warstwa_2" data-name="Warstwa 2"><g id="Warstwa_2-2" data-name="Warstwa 2"><path class="cls-2" d="M173.64,319.49H66.83c-5.16,0-9.56-3.18-10.36-7.5L.13,10.28C-.88,4.88,4.05,0,10.5,0h218c6.44,0,11.35,4.86,10.38,10.24L184,312C183.22,316.29,178.82,319.49,173.64,319.49Z"/><path class="cls-3" d="M168.33,307.51H73c-3.85,0-7.14-3.11-7.81-7.37,0,0-23.4-148.16-23.4-148.55,0-2.93,16.12-9.21,42.87-7.37,32.15,2.22,47.24,13.9,62.16,15.52,20.36,2.22,50.36-13.3,50.39-8.31L176.17,300C175.55,304.32,172.23,307.51,168.33,307.51Z"/><path class="cls-4" d="M10.5,0C4.05,0-.88,4.88.13,10.28L56.47,312c.8,4.32,5.2,7.5,10.36,7.5l37.17.25S62.17.09,62.61,0Z"/><ellipse class="cls-5" cx="152.19" cy="194.11" rx="2.68" ry="2.77"/><ellipse class="cls-5" cx="170.4" cy="183.03" rx="3.21" ry="3.33"/><ellipse class="cls-5" cx="166.12" cy="198.55" rx="4.82" ry="4.99"/></g></g></g></svg>